<svg width="38" height="38" viewBox="0 0 38 38" fill="none" xmlns="http://www.w3.org/2000/svg">
<path d="M11.875 7.92863V10.2373H34.4375V14.8075L31.8027 22.9352H11.1278L8.15902 2.15405H1.1875V4.46276H6.09098L9.05973 25.2439H33.5445L36.8125 15.1626V7.92863H11.875Z" fill="#E16A00"/>
<path d="M13.1355 27.5717C11.8762 27.573 10.6688 28.06 9.77832 28.9256C8.88784 29.7912 8.38693 30.9649 8.3855 32.1891C8.3855 33.4137 8.88594 34.5881 9.77674 35.4541C10.6675 36.32 11.8757 36.8065 13.1355 36.8065C14.3953 36.8065 15.6035 36.32 16.4943 35.4541C17.3851 34.5881 17.8855 33.4137 17.8855 32.1891C17.8841 30.9649 17.3832 29.7912 16.4927 28.9256C15.6022 28.0599 14.3948 27.573 13.1355 27.5717ZM13.1355 34.4978C12.6658 34.4978 12.2066 34.3624 11.816 34.1087C11.4255 33.855 11.121 33.4944 10.9413 33.0726C10.7615 32.6507 10.7145 32.1865 10.8061 31.7387C10.8978 31.2908 11.124 30.8794 11.4561 30.5566C11.7883 30.2337 12.2115 30.0138 12.6722 29.9247C13.1329 29.8356 13.6104 29.8814 14.0444 30.0561C14.4783 30.2308 14.8493 30.5268 15.1102 30.9064C15.3712 31.2861 15.5105 31.7324 15.5105 32.1891C15.5097 32.8011 15.2593 33.388 14.8141 33.8208C14.3688 34.2536 13.7652 34.497 13.1355 34.4978Z" fill="#E16A00"/>
<path d="M29.7605 27.5717C28.5012 27.573 27.2938 28.06 26.4033 28.9256C25.5128 29.7912 25.0119 30.9649 25.0105 32.1891C25.0105 33.4137 25.5109 34.5881 26.4017 35.4541C27.2925 36.32 28.5007 36.8065 29.7605 36.8065C31.0203 36.8065 32.2285 36.32 33.1193 35.4541C34.0101 34.5881 34.5105 33.4137 34.5105 32.1891C34.5091 30.9649 34.0082 29.7912 33.1177 28.9256C32.2272 28.0599 31.0198 27.573 29.7605 27.5717ZM29.7605 34.4978C29.2908 34.4978 28.8316 34.3624 28.441 34.1087C28.0505 33.855 27.746 33.4944 27.5663 33.0726C27.3865 32.6507 27.3395 32.1865 27.4311 31.7387C27.5228 31.2908 27.749 30.8794 28.0811 30.5566C28.4133 30.2337 28.8365 30.0138 29.2972 29.9247C29.7579 29.8356 30.2354 29.8814 30.6694 30.0561C31.1033 30.2308 31.4743 30.5268 31.7352 30.9064C31.9962 31.2861 32.1355 31.7324 32.1355 32.1891C32.1348 32.8011 31.8843 33.388 31.4391 33.8208C30.9938 34.2536 30.3902 34.497 29.7605 34.4978Z" fill="#E16A00"/>
</svg>
