<svg width="42" height="34" viewBox="0 0 42 34" fill="none" xmlns="http://www.w3.org/2000/svg">
<path d="M39.0037 10.8802C38.8339 9.60551 38.81 7.41004 39.9958 6.67283C40.017 6.65932 40.0328 6.63979 40.0514 6.62303C41.0209 6.31343 41.6919 5.87894 41.1652 5.29428L26.8633 0.991943L3.70522 4.20643C3.70522 4.20643 1.05333 4.58486 1.29023 8.69824C1.41883 10.937 2.12213 12.0365 2.73719 12.5776L0.836863 13.1494C0.309419 13.734 0.980256 14.1686 1.94991 14.4777C1.96834 14.495 1.98388 14.5144 2.00544 14.5279C3.19056 15.2657 3.16775 17.461 2.99728 18.7359C-1.26025 19.9429 0.268056 20.3362 0.268056 20.3362L1.20199 20.5618C0.545064 21.1545 -0.107347 22.2784 0.0148627 24.4099C0.251887 28.5225 2.4301 28.8064 2.4301 28.8064L17.5846 33.7241L40.4585 28.1927C40.4585 28.1927 41.9873 27.7987 37.7286 26.5916C37.5574 25.3187 37.5336 23.1237 38.7215 22.384C38.7433 22.3709 38.7592 22.351 38.7769 22.3344C39.7465 22.0248 40.4169 21.5907 39.89 21.0061L38.8958 20.7064C39.5589 20.3072 40.5549 19.2639 40.7109 16.5538C40.8186 14.6897 40.3315 13.598 39.7677 12.9553L41.7328 12.4805C41.733 12.4812 43.2618 12.0873 39.0037 10.8802ZM19.8711 10.8275L23.7176 10.0382L36.7167 7.37124L38.6534 6.97355C38.0346 8.10432 38.0605 9.65181 38.1629 10.6464C38.1854 10.8714 38.2112 11.0769 38.2363 11.2331L36.1165 11.7593L19.7094 15.8343L19.8711 10.8275ZM3.34799 14.8299L5.28442 15.2276L17.7682 17.7897L18.8588 18.0127L22.1294 18.6838L22.2907 23.6907L5.42781 19.5021L3.76538 19.0897C3.78982 18.9332 3.81565 18.728 3.83908 18.5024C3.94086 17.5085 3.96731 15.9607 3.34799 14.8299ZM2.59568 8.50026C2.57224 7.40616 2.76753 6.61489 3.16223 6.21269C3.41342 5.9559 3.70986 5.90247 3.91316 5.90247C4.02058 5.90247 4.09792 5.91736 4.10318 5.91736L14.0814 9.16514L19.0596 10.7856L18.8963 15.8274L4.93032 11.9182L4.1933 11.7121C4.16623 11.7045 4.1295 11.6992 4.10118 11.698C4.04364 11.6939 2.66286 11.567 2.59568 8.50026ZM17.6207 31.5398L2.91806 27.4244C2.89086 27.4165 2.85451 27.4113 2.82619 27.4099C2.76765 27.406 1.38624 27.2793 1.31943 24.2133C1.29562 23.1178 1.49191 22.3273 1.88586 21.9247C2.13768 21.6679 2.43424 21.6145 2.63717 21.6145C2.74484 21.6145 2.82192 21.6289 2.82756 21.6289C2.82756 21.6289 2.82819 21.6289 2.82756 21.6289L17.783 26.4979L17.6207 31.5398ZM36.8866 26.3581C36.9098 26.5839 36.9356 26.789 36.9607 26.9454L18.4334 31.5469L18.5954 26.5401L22.5563 25.727L23.1413 25.8683L25.3338 25.1569L35.4404 23.0834L37.3778 22.6855C36.7584 23.8161 36.784 25.3642 36.8866 26.3581ZM37.9071 19.5536C37.8734 19.5543 37.8397 19.5588 37.808 19.5688L36.4106 19.9594L23.1057 23.6841L22.943 18.6423L27.3082 17.2208L37.878 13.7793C37.8794 13.7787 38.4341 13.6557 38.8412 14.069C39.2353 14.4712 39.4308 15.2625 39.4077 16.3566C39.3388 19.4223 37.9574 19.5497 37.9071 19.5536Z" fill="#4D2900"/>
</svg>
