<svg width="14" height="15" viewBox="0 0 14 15" fill="none" xmlns="http://www.w3.org/2000/svg">
<path d="M13.8789 14.2039L9.69236 9.93153C10.527 8.92145 10.9443 7.75667 10.9443 6.4372C10.9443 5.44531 10.7042 4.53078 10.2241 3.6936C9.74396 2.85641 9.08883 2.1944 8.2587 1.70756C7.42857 1.22072 6.52665 0.977295 5.55293 0.977295C4.57922 0.977295 3.67954 1.22072 2.8539 1.70756C2.02825 2.1944 1.37537 2.85641 0.895241 3.6936C0.415113 4.53078 0.175049 5.44531 0.175049 6.4372C0.175049 7.42908 0.415113 8.34361 0.895241 9.1808C1.37537 10.018 2.02825 10.68 2.8539 11.1668C3.67954 11.6537 4.58146 11.8971 5.55966 11.8971C6.89684 11.8971 8.07248 11.4512 9.08659 10.5594L13.2597 14.8181C13.3494 14.9091 13.4526 14.9546 13.5693 14.9546C13.6859 14.9546 13.7869 14.9114 13.8722 14.825C13.9574 14.7385 14 14.6339 14 14.511C14 14.3882 13.9597 14.2858 13.8789 14.2039ZM5.55966 11.0372C4.73402 11.0372 3.97345 10.8301 3.27793 10.4161C2.58242 10.0021 2.03274 9.44242 1.62889 8.73718C1.22505 8.03194 1.02313 7.26528 1.02313 6.4372C1.02313 5.60911 1.22505 4.84245 1.62889 4.13721C2.03274 3.43198 2.58242 2.87234 3.27793 2.45829C3.97345 2.04425 4.73178 1.83723 5.55293 1.83723C6.37409 1.83723 7.13242 2.04425 7.82793 2.45829C8.52345 2.87234 9.07313 3.43198 9.47697 4.13721C9.88082 4.84245 10.0827 5.60911 10.0827 6.4372C10.0827 6.79209 10.0424 7.14243 9.96159 7.48823C9.88082 7.83402 9.7664 8.15706 9.61832 8.45736C9.47024 8.75765 9.293 9.04202 9.08659 9.31047C8.88018 9.57891 8.64684 9.81778 8.38659 10.0271C8.12633 10.2364 7.84813 10.4161 7.55197 10.5662C7.25582 10.7164 6.93723 10.8324 6.5962 10.9143C6.25518 10.9962 5.90966 11.0372 5.55966 11.0372Z" fill="#241400"/>
</svg>
